<svg xmlns="http://www.w3.org/2000/svg" viewBox="0 0 900 520"><defs><linearGradient id="g" x1="0" x2="1"><stop stop-color="#241b39"/><stop offset="1" stop-color="#6c4f9e"/></linearGradient></defs><rect width="900" height="520" rx="34" fill="url(#g)"/><g fill="none" stroke="#e1d3ff" stroke-width="5"><path d="M350 160c-45 0-80 35-80 80v55c0 45 35 80 80 80h200c45 0 80-35 80-80v-55c0-45-35-80-80-80z"/><path d="M350 160v-35M410 160v-45M470 160v-45M530 160v-35M350 375v35M410 375v45M470 375v45M530 375v-35"/><circle cx="390" cy="250" r="14" fill="#e1d3ff"/><circle cx="510" cy="250" r="14" fill="#e1d3ff"/><path d="M375 305c45 35 105 35 150 0"/><path d="M270 220h-45M675 220h-45"/></g><g fill="#fff" font-family="Arial"><text x="450" y="430" text-anchor="middle" font-size="32" font-weight="700">INTELIGÊNCIA ARTIFICIAL</text><text x="450" y="465" text-anchor="middle" font-size="20" opacity=".8">Python • Machine Learning • Dados</text></g></svg>
